<svg width="180" height="180" viewBox="0 0 180 180" fill="none" xmlns="http://www.w3.org/2000/svg">
<path d="M103.821 13.5C123.721 13.5 139.734 29.2471 139.734 48.6875V56.25H146.239C153.695 56.25 159.739 62.2942 159.739 69.75V129.387C159.739 136.842 153.694 142.887 146.239 142.887H63.0005C55.5448 142.887 49.5007 136.842 49.5005 129.387V69.75C49.5005 62.2942 55.5446 56.25 63.0005 56.25H68.106V48.6875C68.1719 29.2473 84.1842 13.5002 103.821 13.5ZM103.953 24.8398C90.576 24.84 79.7031 35.4679 79.6372 48.5576V56.25H128.203V48.6875C128.203 35.5329 117.329 24.8398 103.953 24.8398Z" fill="url(#paint0_radial_2099_14043)" fill-opacity="0.42"/>
<mask id="mask0_2099_14043" style="mask-type:alpha" maskUnits="userSpaceOnUse" x="49" y="13" width="111" height="130">
<path fill-rule="evenodd" clip-rule="evenodd" d="M139.734 56.25V48.687C139.734 29.2467 123.722 13.5 103.822 13.5C84.1849 13.5 68.1723 29.2467 68.1064 48.687V56.25H63C55.5442 56.25 49.5 62.2942 49.5 69.75V129.386C49.5 136.842 55.5442 142.886 63 142.886H146.239C153.695 142.886 159.739 136.842 159.739 129.386V69.75C159.739 62.2942 153.695 56.25 146.239 56.25H139.734ZM128.203 56.25V48.687C128.203 35.5324 117.33 24.8402 103.953 24.8402C90.5767 24.8402 79.704 35.4676 79.6381 48.5574V56.25H128.203Z" fill="url(#paint1_radial_2099_14043)" fill-opacity="0.42"/>
</mask>
<g mask="url(#mask0_2099_14043)">
<path d="M43.8755 140.028H161.539" stroke="url(#paint2_linear_2099_14043)" stroke-width="0.225" stroke-miterlimit="10"/>
<path d="M43.8755 137.43H161.539" stroke="url(#paint3_linear_2099_14043)" stroke-width="0.225" stroke-miterlimit="10"/>
<path d="M43.8755 134.831H161.539" stroke="url(#paint4_linear_2099_14043)" stroke-width="0.225" stroke-miterlimit="10"/>
<path d="M43.8755 132.232H161.539" stroke="url(#paint5_linear_2099_14043)" stroke-width="0.225" stroke-miterlimit="10"/>
<path d="M43.8755 129.622H161.539" stroke="url(#paint6_linear_2099_14043)" stroke-width="0.225" stroke-miterlimit="10"/>
<path d="M43.8755 127.023H161.539" stroke="url(#paint7_linear_2099_14043)" stroke-width="0.225" stroke-miterlimit="10"/>
<path d="M43.8755 124.425H161.539" stroke="url(#paint8_linear_2099_14043)" stroke-width="0.225" stroke-miterlimit="10"/>
<path d="M43.8755 121.826H161.539" stroke="url(#paint9_linear_2099_14043)" stroke-width="0.225" stroke-miterlimit="10"/>
<path d="M43.8755 119.228H161.539" stroke="url(#paint10_linear_2099_14043)" stroke-width="0.225" stroke-miterlimit="10"/>
<path d="M43.8755 116.617H161.539" stroke="url(#paint11_linear_2099_14043)" stroke-width="0.225" stroke-miterlimit="10"/>
<path d="M43.8755 114.019H161.539" stroke="url(#paint12_linear_2099_14043)" stroke-width="0.225" stroke-miterlimit="10"/>
<path d="M43.8755 111.42H161.539" stroke="url(#paint13_linear_2099_14043)" stroke-width="0.225" stroke-miterlimit="10"/>
<path d="M43.8755 108.821H161.539" stroke="url(#paint14_linear_2099_14043)" stroke-width="0.225" stroke-miterlimit="10"/>
<path d="M43.8755 106.223H161.539" stroke="url(#paint15_linear_2099_14043)" stroke-width="0.225" stroke-miterlimit="10"/>
<path d="M43.8755 103.624H161.539" stroke="url(#paint16_linear_2099_14043)" stroke-width="0.225" stroke-miterlimit="10"/>
<path d="M43.8755 101.014H161.539" stroke="url(#paint17_linear_2099_14043)" stroke-width="0.225" stroke-miterlimit="10"/>
<path d="M43.8755 98.415H161.539" stroke="url(#paint18_linear_2099_14043)" stroke-width="0.225" stroke-miterlimit="10"/>
<path d="M43.8755 95.8164H161.539" stroke="url(#paint19_linear_2099_14043)" stroke-width="0.225" stroke-miterlimit="10"/>
<path d="M43.8755 93.2178H161.539" stroke="url(#paint20_linear_2099_14043)" stroke-width="0.225" stroke-miterlimit="10"/>
<path d="M43.8755 90.6191H161.539" stroke="url(#paint21_linear_2099_14043)" stroke-width="0.225" stroke-miterlimit="10"/>
<path d="M43.8755 88.0088H161.539" stroke="url(#paint22_linear_2099_14043)" stroke-width="0.225" stroke-miterlimit="10"/>
<path d="M43.8755 85.4102H161.539" stroke="url(#paint23_linear_2099_14043)" stroke-width="0.225" stroke-miterlimit="10"/>
<path d="M43.8755 82.8115H161.539" stroke="url(#paint24_linear_2099_14043)" stroke-width="0.225" stroke-miterlimit="10"/>
<path d="M43.8755 80.2129H161.539" stroke="url(#paint25_linear_2099_14043)" stroke-width="0.225" stroke-miterlimit="10"/>
<path d="M43.8755 77.6133H161.539" stroke="url(#paint26_linear_2099_14043)" stroke-width="0.225" stroke-miterlimit="10"/>
<path d="M43.8755 75.0039H161.539" stroke="url(#paint27_linear_2099_14043)" stroke-width="0.225" stroke-miterlimit="10"/>
<path d="M43.8755 72.4053H161.539" stroke="url(#paint28_linear_2099_14043)" stroke-width="0.225" stroke-miterlimit="10"/>
<path d="M43.8755 69.8066H161.539" stroke="url(#paint29_linear_2099_14043)" stroke-width="0.225" stroke-miterlimit="10"/>
<path d="M43.8755 67.207H161.539" stroke="url(#paint30_linear_2099_14043)" stroke-width="0.225" stroke-miterlimit="10"/>
<path d="M43.8755 64.6084H161.539" stroke="url(#paint31_linear_2099_14043)" stroke-width="0.225" stroke-miterlimit="10"/>
<path d="M43.8755 61.999H161.539" stroke="url(#paint32_linear_2099_14043)" stroke-width="0.225" stroke-miterlimit="10"/>
<path d="M43.8755 59.4004H161.539" stroke="url(#paint33_linear_2099_14043)" stroke-width="0.225" stroke-miterlimit="10"/>
<path d="M43.8755 56.8008H161.539" stroke="url(#paint34_linear_2099_14043)" stroke-width="0.225" stroke-miterlimit="10"/>
<path d="M43.8755 54.2021H161.539" stroke="url(#paint35_linear_2099_14043)" stroke-width="0.225" stroke-miterlimit="10"/>
<path d="M43.8755 51.6035H161.539" stroke="url(#paint36_linear_2099_14043)" stroke-width="0.225" stroke-miterlimit="10"/>
<path d="M43.8755 48.9941H161.539" stroke="url(#paint37_linear_2099_14043)" stroke-width="0.225" stroke-miterlimit="10"/>
<path d="M43.8755 46.3945H161.539" stroke="url(#paint38_linear_2099_14043)" stroke-width="0.225" stroke-miterlimit="10"/>
<path d="M43.8755 43.7959H161.539" stroke="url(#paint39_linear_2099_14043)" stroke-width="0.225" stroke-miterlimit="10"/>
<path d="M43.8755 41.1973H161.539" stroke="url(#paint40_linear_2099_14043)" stroke-width="0.225" stroke-miterlimit="10"/>
<path d="M43.8755 38.5986H161.539" stroke="url(#paint41_linear_2099_14043)" stroke-width="0.225" stroke-miterlimit="10"/>
<path d="M43.8755 36H161.539" stroke="url(#paint42_linear_2099_14043)" stroke-width="0.225" stroke-miterlimit="10"/>
<path d="M43.8755 33.3896H161.539" stroke="url(#paint43_linear_2099_14043)" stroke-width="0.225" stroke-miterlimit="10"/>
<path d="M43.8755 30.791H161.539" stroke="url(#paint44_linear_2099_14043)" stroke-width="0.225" stroke-miterlimit="10"/>
<path d="M43.8755 28.1924H161.539" stroke="url(#paint45_linear_2099_14043)" stroke-width="0.225" stroke-miterlimit="10"/>
<path d="M43.8755 25.5938H161.539" stroke="url(#paint46_linear_2099_14043)" stroke-width="0.225" stroke-miterlimit="10"/>
<path d="M43.8755 22.9951H161.539" stroke="url(#paint47_linear_2099_14043)" stroke-width="0.225" stroke-miterlimit="10"/>
<path d="M43.8755 20.3848H161.539" stroke="url(#paint48_linear_2099_14043)" stroke-width="0.225" stroke-miterlimit="10"/>
<path d="M43.8755 17.7861H161.539" stroke="url(#paint49_linear_2099_14043)" stroke-width="0.225" stroke-miterlimit="10"/>
<path d="M43.8755 15.1875H161.539" stroke="url(#paint50_linear_2099_14043)" stroke-width="0.225" stroke-miterlimit="10"/>
</g>
<foreignObject x="69.213" y="63.526" width="69.0994" height="69.3474"><div xmlns="http://www.w3.org/1999/xhtml" style="backdrop-filter:blur(6.16px);clip-path:url(#bgblur_0_2099_14043_clip_path);height:100%;width:100%"></div></foreignObject><path data-figma-bg-blur-radius="12.3158" d="M103.762 75.9541C115.979 75.9541 125.884 85.9131 125.884 98.1992C125.884 110.486 115.979 120.444 103.762 120.444C91.5457 120.444 81.6411 110.485 81.6411 98.1992C81.6413 85.9132 91.5458 75.9543 103.762 75.9541Z" fill="url(#paint51_linear_2099_14043)" fill-opacity="0.5" stroke="url(#paint52_linear_2099_14043)" stroke-width="0.225"/>
<foreignObject x="75.176" y="63.9285" width="56.6431" height="67.8931"><div xmlns="http://www.w3.org/1999/xhtml" style="backdrop-filter:blur(11.91px);clip-path:url(#bgblur_1_2099_14043_clip_path);height:100%;width:100%"></div></foreignObject><path data-figma-bg-blur-radius="23.8215" d="M103.472 87.8623C105.932 87.8625 107.885 89.8031 107.885 92.1875V103.512C107.885 105.948 105.931 107.888 103.472 107.888C101.066 107.888 99.1101 105.949 99.1099 103.512V92.1875C99.1099 89.8022 101.065 87.8623 103.472 87.8623Z" fill="url(#paint53_radial_2099_14043)" fill-opacity="0.53" stroke="url(#paint54_linear_2099_14043)" stroke-width="0.225"/>
<foreignObject x="8.60169" y="91.8473" width="92.9914" height="93.6706"><div xmlns="http://www.w3.org/1999/xhtml" style="backdrop-filter:blur(6.16px);clip-path:url(#bgblur_2_2099_14043_clip_path);height:100%;width:100%"></div></foreignObject><path data-figma-bg-blur-radius="12.3158" d="M55.0972 104.395C73.8494 104.395 89.0463 119.751 89.0464 138.683C89.0464 157.621 73.8494 172.972 55.0972 172.972C36.3451 172.971 21.1489 157.621 21.1489 138.683C21.149 119.751 36.3451 104.395 55.0972 104.395Z" fill="url(#paint55_linear_2099_14043)" fill-opacity="0.5" stroke="url(#paint56_linear_2099_14043)" stroke-width="0.461842" stroke-linecap="round" stroke-linejoin="round"/>
<foreignObject x="37.4382" y="111.684" width="43.0323" height="54.6314"><div xmlns="http://www.w3.org/1999/xhtml" style="backdrop-filter:blur(6.03px);clip-path:url(#bgblur_3_2099_14043_clip_path);height:100%;width:100%"></div></foreignObject><g data-figma-bg-blur-radius="12.0662">
<path d="M52.1167 123.911C53.4722 123.911 54.5688 124.994 54.5688 126.323V142.271L54.6479 142.317L67.0483 149.602C68.2091 150.288 68.5893 151.767 67.8979 152.91C67.4374 153.666 66.624 154.088 65.7896 154.088C65.3609 154.088 64.9282 153.979 64.5317 153.75H64.5327L50.8569 145.715H50.8579C50.1188 145.277 49.6657 144.489 49.6655 143.641V126.323C49.6656 124.994 50.7613 123.911 52.1167 123.911Z" fill="#0658D0" fill-opacity="0.03"/>
<path d="M52.1167 123.911C53.4722 123.911 54.5688 124.994 54.5688 126.323V142.271L54.6479 142.317L67.0483 149.602C68.2091 150.288 68.5893 151.767 67.8979 152.91C67.4374 153.666 66.624 154.088 65.7896 154.088C65.3609 154.088 64.9282 153.979 64.5317 153.75H64.5327L50.8569 145.715H50.8579C50.1188 145.277 49.6657 144.489 49.6655 143.641V126.323C49.6656 124.994 50.7613 123.911 52.1167 123.911Z" fill="url(#paint57_radial_2099_14043)" fill-opacity="0.63"/>
<path d="M52.1167 123.911C53.4722 123.911 54.5688 124.994 54.5688 126.323V142.271L54.6479 142.317L67.0483 149.602C68.2091 150.288 68.5893 151.767 67.8979 152.91C67.4374 153.666 66.624 154.088 65.7896 154.088C65.3609 154.088 64.9282 153.979 64.5317 153.75H64.5327L50.8569 145.715H50.8579C50.1188 145.277 49.6657 144.489 49.6655 143.641V126.323C49.6656 124.994 50.7613 123.911 52.1167 123.911Z" stroke="url(#paint58_linear_2099_14043)" stroke-width="0.321765"/>
</g>
<defs>
<clipPath id="bgblur_0_2099_14043_clip_path" transform="translate(-69.213 -63.526)"><path d="M103.762 75.9541C115.979 75.9541 125.884 85.9131 125.884 98.1992C125.884 110.486 115.979 120.444 103.762 120.444C91.5457 120.444 81.6411 110.485 81.6411 98.1992C81.6413 85.9132 91.5458 75.9543 103.762 75.9541Z"/>
</clipPath><clipPath id="bgblur_1_2099_14043_clip_path" transform="translate(-75.176 -63.9285)"><path d="M103.472 87.8623C105.932 87.8625 107.885 89.8031 107.885 92.1875V103.512C107.885 105.948 105.931 107.888 103.472 107.888C101.066 107.888 99.1101 105.949 99.1099 103.512V92.1875C99.1099 89.8022 101.065 87.8623 103.472 87.8623Z"/>
</clipPath><clipPath id="bgblur_2_2099_14043_clip_path" transform="translate(-8.60169 -91.8473)"><path d="M55.0972 104.395C73.8494 104.395 89.0463 119.751 89.0464 138.683C89.0464 157.621 73.8494 172.972 55.0972 172.972C36.3451 172.971 21.1489 157.621 21.1489 138.683C21.149 119.751 36.3451 104.395 55.0972 104.395Z"/>
</clipPath><clipPath id="bgblur_3_2099_14043_clip_path" transform="translate(-37.4382 -111.684)"><path d="M52.1167 123.911C53.4722 123.911 54.5688 124.994 54.5688 126.323V142.271L54.6479 142.317L67.0483 149.602C68.2091 150.288 68.5893 151.767 67.8979 152.91C67.4374 153.666 66.624 154.088 65.7896 154.088C65.3609 154.088 64.9282 153.979 64.5317 153.75H64.5327L50.8569 145.715H50.8579C50.1188 145.277 49.6657 144.489 49.6655 143.641V126.323C49.6656 124.994 50.7613 123.911 52.1167 123.911Z"/>
</clipPath><radialGradient id="paint0_radial_2099_14043" cx="0" cy="0" r="1" gradientTransform="matrix(79.2338 80.8667 -72.7848 108.416 73.6151 41.8033)" gradientUnits="userSpaceOnUse">
<stop stop-color="#0658D0"/>
<stop offset="0.299176" stop-color="#0658D0" stop-opacity="0.725259"/>
<stop offset="1" stop-color="#0658D0" stop-opacity="0.13"/>
</radialGradient>
<radialGradient id="paint1_radial_2099_14043" cx="0" cy="0" r="1" gradientTransform="matrix(79.2341 80.8664 -72.7851 108.415 73.6147 41.8032)" gradientUnits="userSpaceOnUse">
<stop stop-color="#6E66FA"/>
<stop offset="0.299176" stop-color="#6E66FA" stop-opacity="0.725259"/>
<stop offset="1" stop-color="#6E66FA" stop-opacity="0.13"/>
</radialGradient>
<linearGradient id="paint2_linear_2099_14043" x1="43.5821" y1="140.036" x2="164.162" y2="139.946" gradientUnits="userSpaceOnUse">
<stop stop-color="#F8F7FF"/>
<stop offset="0.489583" stop-color="#0165FB"/>
<stop offset="1" stop-color="#F8F7FF"/>
</linearGradient>
<linearGradient id="paint3_linear_2099_14043" x1="43.5821" y1="137.437" x2="164.162" y2="137.348" gradientUnits="userSpaceOnUse">
<stop stop-color="#F8F7FF"/>
<stop offset="0.489583" stop-color="#0165FB"/>
<stop offset="1" stop-color="#F8F7FF"/>
</linearGradient>
<linearGradient id="paint4_linear_2099_14043" x1="43.5821" y1="134.839" x2="164.162" y2="134.749" gradientUnits="userSpaceOnUse">
<stop stop-color="#F8F7FF"/>
<stop offset="0.489583" stop-color="#0165FB"/>
<stop offset="1" stop-color="#F8F7FF"/>
</linearGradient>
<linearGradient id="paint5_linear_2099_14043" x1="43.5821" y1="132.24" x2="164.162" y2="132.15" gradientUnits="userSpaceOnUse">
<stop stop-color="#F8F7FF"/>
<stop offset="0.489583" stop-color="#0165FB"/>
<stop offset="1" stop-color="#F8F7FF"/>
</linearGradient>
<linearGradient id="paint6_linear_2099_14043" x1="43.5821" y1="129.63" x2="164.162" y2="129.54" gradientUnits="userSpaceOnUse">
<stop stop-color="#F8F7FF"/>
<stop offset="0.489583" stop-color="#0165FB"/>
<stop offset="1" stop-color="#F8F7FF"/>
</linearGradient>
<linearGradient id="paint7_linear_2099_14043" x1="43.5821" y1="127.031" x2="164.162" y2="126.941" gradientUnits="userSpaceOnUse">
<stop stop-color="#F8F7FF"/>
<stop offset="0.489583" stop-color="#0165FB"/>
<stop offset="1" stop-color="#F8F7FF"/>
</linearGradient>
<linearGradient id="paint8_linear_2099_14043" x1="43.5821" y1="124.432" x2="164.162" y2="124.343" gradientUnits="userSpaceOnUse">
<stop stop-color="#F8F7FF"/>
<stop offset="0.489583" stop-color="#0165FB"/>
<stop offset="1" stop-color="#F8F7FF"/>
</linearGradient>
<linearGradient id="paint9_linear_2099_14043" x1="43.5821" y1="121.834" x2="164.162" y2="121.744" gradientUnits="userSpaceOnUse">
<stop stop-color="#F8F7FF"/>
<stop offset="0.489583" stop-color="#0165FB"/>
<stop offset="1" stop-color="#F8F7FF"/>
</linearGradient>
<linearGradient id="paint10_linear_2099_14043" x1="43.5821" y1="119.235" x2="164.162" y2="119.145" gradientUnits="userSpaceOnUse">
<stop stop-color="#F8F7FF"/>
<stop offset="0.489583" stop-color="#0165FB"/>
<stop offset="1" stop-color="#F8F7FF"/>
</linearGradient>
<linearGradient id="paint11_linear_2099_14043" x1="43.5821" y1="116.625" x2="164.162" y2="116.535" gradientUnits="userSpaceOnUse">
<stop stop-color="#F8F7FF"/>
<stop offset="0.489583" stop-color="#0165FB"/>
<stop offset="1" stop-color="#F8F7FF"/>
</linearGradient>
<linearGradient id="paint12_linear_2099_14043" x1="43.5821" y1="114.026" x2="164.162" y2="113.936" gradientUnits="userSpaceOnUse">
<stop stop-color="#F8F7FF"/>
<stop offset="0.489583" stop-color="#0165FB"/>
<stop offset="1" stop-color="#F8F7FF"/>
</linearGradient>
<linearGradient id="paint13_linear_2099_14043" x1="43.5821" y1="111.427" x2="164.162" y2="111.338" gradientUnits="userSpaceOnUse">
<stop stop-color="#F8F7FF"/>
<stop offset="0.489583" stop-color="#0165FB"/>
<stop offset="1" stop-color="#F8F7FF"/>
</linearGradient>
<linearGradient id="paint14_linear_2099_14043" x1="43.5821" y1="108.829" x2="164.162" y2="108.739" gradientUnits="userSpaceOnUse">
<stop stop-color="#F8F7FF"/>
<stop offset="0.489583" stop-color="#0165FB"/>
<stop offset="1" stop-color="#F8F7FF"/>
</linearGradient>
<linearGradient id="paint15_linear_2099_14043" x1="43.5821" y1="106.23" x2="164.162" y2="106.141" gradientUnits="userSpaceOnUse">
<stop stop-color="#F8F7FF"/>
<stop offset="0.489583" stop-color="#0165FB"/>
<stop offset="1" stop-color="#F8F7FF"/>
</linearGradient>
<linearGradient id="paint16_linear_2099_14043" x1="43.5821" y1="103.632" x2="164.162" y2="103.542" gradientUnits="userSpaceOnUse">
<stop stop-color="#F8F7FF"/>
<stop offset="0.489583" stop-color="#0165FB"/>
<stop offset="1" stop-color="#F8F7FF"/>
</linearGradient>
<linearGradient id="paint17_linear_2099_14043" x1="43.5821" y1="101.021" x2="164.162" y2="100.932" gradientUnits="userSpaceOnUse">
<stop stop-color="#F8F7FF"/>
<stop offset="0.489583" stop-color="#0165FB"/>
<stop offset="1" stop-color="#F8F7FF"/>
</linearGradient>
<linearGradient id="paint18_linear_2099_14043" x1="43.5821" y1="98.4225" x2="164.162" y2="98.3329" gradientUnits="userSpaceOnUse">
<stop stop-color="#F8F7FF"/>
<stop offset="0.489583" stop-color="#0165FB"/>
<stop offset="1" stop-color="#F8F7FF"/>
</linearGradient>
<linearGradient id="paint19_linear_2099_14043" x1="43.5821" y1="95.8239" x2="164.162" y2="95.7343" gradientUnits="userSpaceOnUse">
<stop stop-color="#F8F7FF"/>
<stop offset="0.489583" stop-color="#0165FB"/>
<stop offset="1" stop-color="#F8F7FF"/>
</linearGradient>
<linearGradient id="paint20_linear_2099_14043" x1="43.5821" y1="93.2253" x2="164.162" y2="93.1356" gradientUnits="userSpaceOnUse">
<stop stop-color="#F8F7FF"/>
<stop offset="0.489583" stop-color="#0165FB"/>
<stop offset="1" stop-color="#F8F7FF"/>
</linearGradient>
<linearGradient id="paint21_linear_2099_14043" x1="43.5821" y1="90.6266" x2="164.162" y2="90.537" gradientUnits="userSpaceOnUse">
<stop stop-color="#F8F7FF"/>
<stop offset="0.489583" stop-color="#0165FB"/>
<stop offset="1" stop-color="#F8F7FF"/>
</linearGradient>
<linearGradient id="paint22_linear_2099_14043" x1="43.5821" y1="88.0163" x2="164.162" y2="87.9266" gradientUnits="userSpaceOnUse">
<stop stop-color="#F8F7FF"/>
<stop offset="0.489583" stop-color="#0165FB"/>
<stop offset="1" stop-color="#F8F7FF"/>
</linearGradient>
<linearGradient id="paint23_linear_2099_14043" x1="43.5821" y1="85.4177" x2="164.162" y2="85.328" gradientUnits="userSpaceOnUse">
<stop stop-color="#F8F7FF"/>
<stop offset="0.489583" stop-color="#0165FB"/>
<stop offset="1" stop-color="#F8F7FF"/>
</linearGradient>
<linearGradient id="paint24_linear_2099_14043" x1="43.5821" y1="82.819" x2="164.162" y2="82.7294" gradientUnits="userSpaceOnUse">
<stop stop-color="#F8F7FF"/>
<stop offset="0.489583" stop-color="#0165FB"/>
<stop offset="1" stop-color="#F8F7FF"/>
</linearGradient>
<linearGradient id="paint25_linear_2099_14043" x1="43.5821" y1="80.2204" x2="164.162" y2="80.1307" gradientUnits="userSpaceOnUse">
<stop stop-color="#F8F7FF"/>
<stop offset="0.489583" stop-color="#0165FB"/>
<stop offset="1" stop-color="#F8F7FF"/>
</linearGradient>
<linearGradient id="paint26_linear_2099_14043" x1="43.5821" y1="77.6208" x2="164.162" y2="77.5311" gradientUnits="userSpaceOnUse">
<stop stop-color="#F8F7FF"/>
<stop offset="0.489583" stop-color="#0165FB"/>
<stop offset="1" stop-color="#F8F7FF"/>
</linearGradient>
<linearGradient id="paint27_linear_2099_14043" x1="43.5821" y1="75.0114" x2="164.162" y2="74.9218" gradientUnits="userSpaceOnUse">
<stop stop-color="#F8F7FF"/>
<stop offset="0.489583" stop-color="#0165FB"/>
<stop offset="1" stop-color="#F8F7FF"/>
</linearGradient>
<linearGradient id="paint28_linear_2099_14043" x1="43.5821" y1="72.4128" x2="164.162" y2="72.3231" gradientUnits="userSpaceOnUse">
<stop stop-color="#F8F7FF"/>
<stop offset="0.489583" stop-color="#0165FB"/>
<stop offset="1" stop-color="#F8F7FF"/>
</linearGradient>
<linearGradient id="paint29_linear_2099_14043" x1="43.5821" y1="69.8141" x2="164.162" y2="69.7245" gradientUnits="userSpaceOnUse">
<stop stop-color="#F8F7FF"/>
<stop offset="0.489583" stop-color="#0165FB"/>
<stop offset="1" stop-color="#F8F7FF"/>
</linearGradient>
<linearGradient id="paint30_linear_2099_14043" x1="43.5821" y1="67.2145" x2="164.162" y2="67.1249" gradientUnits="userSpaceOnUse">
<stop stop-color="#F8F7FF"/>
<stop offset="0.489583" stop-color="#0165FB"/>
<stop offset="1" stop-color="#F8F7FF"/>
</linearGradient>
<linearGradient id="paint31_linear_2099_14043" x1="43.5821" y1="64.6159" x2="164.162" y2="64.5262" gradientUnits="userSpaceOnUse">
<stop stop-color="#F8F7FF"/>
<stop offset="0.489583" stop-color="#0165FB"/>
<stop offset="1" stop-color="#F8F7FF"/>
</linearGradient>
<linearGradient id="paint32_linear_2099_14043" x1="43.5821" y1="62.0065" x2="164.162" y2="61.9169" gradientUnits="userSpaceOnUse">
<stop stop-color="#F8F7FF"/>
<stop offset="0.489583" stop-color="#0165FB"/>
<stop offset="1" stop-color="#F8F7FF"/>
</linearGradient>
<linearGradient id="paint33_linear_2099_14043" x1="43.5821" y1="59.4079" x2="164.162" y2="59.3182" gradientUnits="userSpaceOnUse">
<stop stop-color="#F8F7FF"/>
<stop offset="0.489583" stop-color="#0165FB"/>
<stop offset="1" stop-color="#F8F7FF"/>
</linearGradient>
<linearGradient id="paint34_linear_2099_14043" x1="43.5821" y1="56.8083" x2="164.162" y2="56.7186" gradientUnits="userSpaceOnUse">
<stop stop-color="#F8F7FF"/>
<stop offset="0.489583" stop-color="#0165FB"/>
<stop offset="1" stop-color="#F8F7FF"/>
</linearGradient>
<linearGradient id="paint35_linear_2099_14043" x1="43.5821" y1="54.2096" x2="164.162" y2="54.12" gradientUnits="userSpaceOnUse">
<stop stop-color="#F8F7FF"/>
<stop offset="0.489583" stop-color="#0165FB"/>
<stop offset="1" stop-color="#F8F7FF"/>
</linearGradient>
<linearGradient id="paint36_linear_2099_14043" x1="43.5821" y1="51.611" x2="164.162" y2="51.5214" gradientUnits="userSpaceOnUse">
<stop stop-color="#F8F7FF"/>
<stop offset="0.489583" stop-color="#0165FB"/>
<stop offset="1" stop-color="#F8F7FF"/>
</linearGradient>
<linearGradient id="paint37_linear_2099_14043" x1="43.5821" y1="49.0016" x2="164.162" y2="48.912" gradientUnits="userSpaceOnUse">
<stop stop-color="#F8F7FF"/>
<stop offset="0.489583" stop-color="#0165FB"/>
<stop offset="1" stop-color="#F8F7FF"/>
</linearGradient>
<linearGradient id="paint38_linear_2099_14043" x1="43.5821" y1="46.402" x2="164.162" y2="46.3124" gradientUnits="userSpaceOnUse">
<stop stop-color="#F8F7FF"/>
<stop offset="0.489583" stop-color="#0165FB"/>
<stop offset="1" stop-color="#F8F7FF"/>
</linearGradient>
<linearGradient id="paint39_linear_2099_14043" x1="43.5821" y1="43.8034" x2="164.162" y2="43.7137" gradientUnits="userSpaceOnUse">
<stop stop-color="#F8F7FF"/>
<stop offset="0.489583" stop-color="#0165FB"/>
<stop offset="1" stop-color="#F8F7FF"/>
</linearGradient>
<linearGradient id="paint40_linear_2099_14043" x1="43.5821" y1="41.2048" x2="164.162" y2="41.1151" gradientUnits="userSpaceOnUse">
<stop stop-color="#F8F7FF"/>
<stop offset="0.489583" stop-color="#0165FB"/>
<stop offset="1" stop-color="#F8F7FF"/>
</linearGradient>
<linearGradient id="paint41_linear_2099_14043" x1="43.5821" y1="38.6061" x2="164.162" y2="38.5165" gradientUnits="userSpaceOnUse">
<stop stop-color="#F8F7FF"/>
<stop offset="0.489583" stop-color="#0165FB"/>
<stop offset="1" stop-color="#F8F7FF"/>
</linearGradient>
<linearGradient id="paint42_linear_2099_14043" x1="43.5821" y1="36.0075" x2="164.162" y2="35.9178" gradientUnits="userSpaceOnUse">
<stop stop-color="#F8F7FF"/>
<stop offset="0.489583" stop-color="#0165FB"/>
<stop offset="1" stop-color="#F8F7FF"/>
</linearGradient>
<linearGradient id="paint43_linear_2099_14043" x1="43.5821" y1="33.3971" x2="164.162" y2="33.3075" gradientUnits="userSpaceOnUse">
<stop stop-color="#F8F7FF"/>
<stop offset="0.489583" stop-color="#0165FB"/>
<stop offset="1" stop-color="#F8F7FF"/>
</linearGradient>
<linearGradient id="paint44_linear_2099_14043" x1="43.5821" y1="30.7985" x2="164.162" y2="30.7089" gradientUnits="userSpaceOnUse">
<stop stop-color="#F8F7FF"/>
<stop offset="0.489583" stop-color="#0165FB"/>
<stop offset="1" stop-color="#F8F7FF"/>
</linearGradient>
<linearGradient id="paint45_linear_2099_14043" x1="43.5821" y1="28.1999" x2="164.162" y2="28.1102" gradientUnits="userSpaceOnUse">
<stop stop-color="#F8F7FF"/>
<stop offset="0.489583" stop-color="#0165FB"/>
<stop offset="1" stop-color="#F8F7FF"/>
</linearGradient>
<linearGradient id="paint46_linear_2099_14043" x1="43.5821" y1="25.6013" x2="164.162" y2="25.5116" gradientUnits="userSpaceOnUse">
<stop stop-color="#F8F7FF"/>
<stop offset="0.489583" stop-color="#0165FB"/>
<stop offset="1" stop-color="#F8F7FF"/>
</linearGradient>
<linearGradient id="paint47_linear_2099_14043" x1="43.5821" y1="23.0026" x2="164.162" y2="22.913" gradientUnits="userSpaceOnUse">
<stop stop-color="#F8F7FF"/>
<stop offset="0.489583" stop-color="#0165FB"/>
<stop offset="1" stop-color="#F8F7FF"/>
</linearGradient>
<linearGradient id="paint48_linear_2099_14043" x1="43.5821" y1="20.3923" x2="164.162" y2="20.3026" gradientUnits="userSpaceOnUse">
<stop stop-color="#F8F7FF"/>
<stop offset="0.489583" stop-color="#0165FB"/>
<stop offset="1" stop-color="#F8F7FF"/>
</linearGradient>
<linearGradient id="paint49_linear_2099_14043" x1="43.5821" y1="17.7936" x2="164.162" y2="17.704" gradientUnits="userSpaceOnUse">
<stop stop-color="#F8F7FF"/>
<stop offset="0.489583" stop-color="#0165FB"/>
<stop offset="1" stop-color="#F8F7FF"/>
</linearGradient>
<linearGradient id="paint50_linear_2099_14043" x1="43.5821" y1="15.195" x2="164.162" y2="15.1053" gradientUnits="userSpaceOnUse">
<stop stop-color="#F8F7FF"/>
<stop offset="0.489583" stop-color="#0165FB"/>
<stop offset="1" stop-color="#F8F7FF"/>
</linearGradient>
<linearGradient id="paint51_linear_2099_14043" x1="92.9052" y1="80.8678" x2="91.2893" y2="117.692" gradientUnits="userSpaceOnUse">
<stop stop-color="#BAD6FF" stop-opacity="0.93"/>
<stop offset="1" stop-color="#ECEBFF" stop-opacity="0.9"/>
</linearGradient>
<linearGradient id="paint52_linear_2099_14043" x1="88.5421" y1="80.8165" x2="120.191" y2="114.299" gradientUnits="userSpaceOnUse">
<stop stop-color="white"/>
<stop offset="1" stop-color="white" stop-opacity="0"/>
</linearGradient>
<radialGradient id="paint53_radial_2099_14043" cx="0" cy="0" r="1" gradientTransform="matrix(1.10799e-07 21.6955 -17.7878 15.7809 103.062 85.1933)" gradientUnits="userSpaceOnUse">
<stop offset="0.116583" stop-color="#FAFAFF"/>
<stop offset="0.548986" stop-color="#94C0FF"/>
<stop offset="1" stop-color="#558AD9"/>
</radialGradient>
<linearGradient id="paint54_linear_2099_14043" x1="100.43" y1="90.1092" x2="111.595" y2="96.2548" gradientUnits="userSpaceOnUse">
<stop stop-color="white" stop-opacity="0.25"/>
<stop offset="1" stop-color="white" stop-opacity="0"/>
</linearGradient>
<linearGradient id="paint55_linear_2099_14043" x1="38.632" y1="112.281" x2="36.1595" y2="168.374" gradientUnits="userSpaceOnUse">
<stop stop-color="#BAD6FF" stop-opacity="0.93"/>
<stop offset="1" stop-color="#ECEBFF" stop-opacity="0.9"/>
</linearGradient>
<linearGradient id="paint56_linear_2099_14043" x1="71.1903" y1="110.043" x2="54.7926" y2="172.661" gradientUnits="userSpaceOnUse">
<stop stop-color="white"/>
<stop offset="1" stop-color="white" stop-opacity="0"/>
</linearGradient>
<radialGradient id="paint57_radial_2099_14043" cx="0" cy="0" r="1" gradientTransform="matrix(0.590321 21.6119 -20.5641 1.10962 57.9791 128.387)" gradientUnits="userSpaceOnUse">
<stop stop-color="#0658D0"/>
<stop offset="0.374937" stop-color="#0658D0" stop-opacity="0.54"/>
<stop offset="1" stop-color="#0658D0" stop-opacity="0.13"/>
</radialGradient>
<linearGradient id="paint58_linear_2099_14043" x1="52.5129" y1="127.303" x2="71.7379" y2="142.058" gradientUnits="userSpaceOnUse">
<stop stop-color="white" stop-opacity="0.25"/>
<stop offset="1" stop-color="white" stop-opacity="0"/>
</linearGradient>
</defs>
</svg>
